<svg width="4046" height="4046" viewBox="0 0 4046 4046" fill="none" xmlns="http://www.w3.org/2000/svg">
<g clip-path="url(#clip0_635_1536)">
<path fill-rule="evenodd" clip-rule="evenodd" d="M0 710C0 317.878 317.878 0 710 0H3336C3728.12 0 4046 317.878 4046 710V3336C4046 3728.12 3728.12 4046 3336 4046H710C317.878 4046 0 3728.12 0 3336V710ZM1329.6 1018.6L1331 1017.5C1331 1017.5 1315.5 1090 1355.5 1141.5C1399.12 1182.65 1449.51 1168.6 1484.1 1158.95C1490.34 1157.21 1496.06 1155.62 1501.13 1154.51C1536.84 1129.87 1575.08 1107.98 1615.86 1088.84C1741.44 1027.61 1877.73 997 2024.69 997C2070.11 997 2112.87 1000.4 2152.94 1007.2C2177.17 1009.77 2218.69 1019.57 2246.64 1026.16L2246.67 1026.17H2246.68H2246.69C2268.04 1031.21 2281.47 1034.37 2273.2 1031.01L2353.97 1057.18L2452.63 1104.28C2483.46 1119.97 2535.78 1148.67 2582.12 1188C2625.29 1224.63 2649.96 1250.8 2674.62 1282.19C2719.84 1339.76 2772.88 1422.18 2802.27 1497.01C2834.33 1569.57 2850.37 1648.93 2850.37 1735.1C2850.37 1887.04 2811.62 2017.43 2734.13 2126.27C2659.31 2235.11 2559.11 2319.02 2433.52 2377.97C2307.93 2434.66 2171.65 2463.01 2024.69 2463.01C1995.04 2463.01 1965.68 2461.77 1936.62 2459.28L1957.35 2464.03C1835.06 2470.83 1739.95 2483.29 1672.01 2501.41C1606.33 2519.53 1573.5 2558.04 1573.5 2616.93C1573.5 2650.91 1585.94 2679.22 1610.86 2701.88C1638.04 2722.26 1677.66 2732.45 1729.76 2732.45H2083.04C2200.79 2732.45 2308.37 2748.31 2405.75 2780.02C2503.12 2814 2581.25 2869.49 2640.14 2946.51C2699.02 3025.79 2728.46 3133.39 2728.46 3269.3V3412H2456.71V3337.25C2456.71 3217.2 2424.99 3129.99 2361.59 3075.63C2300.45 3021.26 2207.59 2994.08 2083.04 2994.08H1743.34C1668.61 2994.08 1602.93 2987.28 1546.32 2973.69C1491.97 2962.37 1446.67 2944.24 1410.44 2919.33C1374.2 2894.42 1347.03 2863.84 1328.91 2827.59C1310.79 2791.35 1301.74 2750.57 1301.74 2705.27C1301.74 2619.2 1327.77 2554.64 1379.87 2511.6C1431.95 2466.3 1496.49 2437.98 1573.5 2426.66C1617.57 2420.18 1660.54 2417.41 1702.4 2418.35C1712.12 2418.57 1721.77 2418.98 1731.36 2419.6C1728.86 2418.83 1726.37 2418.06 1723.87 2417.27C1688.72 2406.18 1654.06 2393.09 1619.86 2377.97C1494.28 2319.02 1391.4 2235.11 1311.24 2126.27C1233.75 2017.43 1195 1887.04 1195 1735.1C1195 1583.18 1233.75 1452.79 1311.24 1343.94C1314.43 1339.37 1317.66 1334.84 1320.93 1330.36C1330.97 1283.72 1329.93 1248.62 1297.5 1191.5C1269.51 1147.76 1205.17 1135.02 1189.49 1132.51C1170.46 1137.75 1150.42 1140.55 1129.72 1140.55C1005.61 1140.55 905 1039.91 905 915.773C905 791.634 1005.61 691 1129.72 691C1253.83 691 1354.44 791.634 1354.44 915.773C1354.44 952.828 1345.48 987.789 1329.6 1018.6ZM2024.69 2207.9C2112.87 2207.9 2194.37 2189.76 2269.18 2153.48C2346.68 2117.19 2409.47 2063.91 2457.57 1993.61C2505.66 1923.31 2529.71 1837.15 2529.71 1735.1C2529.71 1633.06 2505.66 1546.9 2457.57 1476.6C2412.14 1404.04 2350.69 1349.61 2273.2 1313.33C2195.7 1274.78 2112.87 1255.51 2024.69 1255.51C1936.51 1255.51 1853.68 1274.78 1776.18 1313.33C1698.69 1349.61 1635.89 1402.9 1587.8 1473.19C1539.7 1543.49 1515.65 1630.8 1515.65 1735.1C1515.65 1837.15 1539.7 1923.31 1587.8 1993.61C1635.89 2063.91 1698.69 2117.19 1776.18 2153.48C1853.68 2189.76 1936.51 2207.9 2024.69 2207.9Z" fill="black"/>
</g>
<defs>
<clipPath id="clip0_635_1536">
<rect width="4046" height="4046" fill="white"/>
</clipPath>
</defs>
</svg>
