<svg width="12574" height="3105" viewBox="0 0 12574 3105" fill="none" xmlns="http://www.w3.org/2000/svg">
<path d="M1199.98 679.546H1471.73V2378.41H1199.98V679.546ZM2056.01 645.568C2146.59 645.568 2228.12 659.159 2300.59 686.341C2373.06 713.523 2434.2 753.163 2484.03 805.262C2533.84 857.36 2572.35 920.784 2599.53 995.534C2626.7 1068.02 2640.29 1150.7 2640.29 1243.57V2378.41H2368.53V1311.52C2368.53 1180.14 2337.96 1081.61 2276.81 1015.92C2215.67 950.232 2123.95 917.387 2001.66 917.387C1908.8 917.387 1822.75 941.171 1743.49 988.739C1664.22 1036.31 1598.55 1101.99 1546.47 1185.81C1496.64 1267.35 1466.07 1362.49 1454.75 1471.22L1451.35 1274.15C1462.67 1179.01 1485.32 1092.94 1519.29 1015.92C1555.52 938.905 1599.68 873.216 1651.77 818.852C1706.12 762.223 1767.27 719.186 1835.21 689.739C1905.41 660.291 1979.01 645.568 2056.01 645.568Z" fill="black"/>
<path d="M6111.3 1831.38H6366.07C6347.95 1942.37 6307.18 2042.03 6243.78 2130.38C6182.63 2216.45 6101.11 2285.54 5999.2 2337.64C5899.55 2387.47 5784.05 2412.39 5652.71 2412.39C5494.18 2412.39 5351.51 2375.01 5224.69 2300.26C5097.86 2223.24 4997.09 2119.05 4922.36 1987.67C4849.88 1854.03 4813.66 1702.26 4813.66 1532.38C4813.66 1362.49 4848.76 1210.72 4918.96 1077.08C4991.43 943.436 5089.94 838.107 5214.5 761.091C5339.05 684.076 5479.46 645.568 5635.72 645.568C5801.03 645.568 5940.31 682.943 6053.55 757.693C6169.05 830.178 6253.97 937.773 6308.32 1080.48C6364.93 1220.91 6387.58 1394.2 6376.26 1600.33H5085.41C5096.73 1711.33 5127.31 1808.72 5177.13 1892.53C5226.95 1976.35 5292.63 2042.03 5374.16 2089.6C5455.68 2134.9 5548.53 2157.56 5652.71 2157.56C5768.2 2157.56 5865.58 2128.11 5944.85 2069.22C6026.37 2008.06 6081.85 1928.78 6111.3 1831.38ZM5645.91 900.398C5505.5 900.398 5387.74 941.171 5292.63 1022.72C5197.51 1104.26 5134.1 1215.26 5102.4 1355.69H6097.71C6088.65 1206.19 6039.96 1092.94 5951.64 1015.92C5865.58 938.905 5763.67 900.398 5645.91 900.398Z" fill="black"/>
<path d="M6726.67 679.546H6998.43V2378.41H6726.67V679.546ZM7582.71 645.568C7673.3 645.568 7754.82 659.159 7827.29 686.341C7899.76 713.523 7960.91 753.163 8010.73 805.262C8060.55 857.36 8099.05 920.784 8126.22 995.534C8153.4 1068.02 8166.99 1150.7 8166.99 1243.57V2378.41H7895.23V1311.52C7895.23 1180.14 7864.66 1081.61 7803.51 1015.92C7742.37 950.232 7650.65 917.387 7528.36 917.387C7435.51 917.387 7349.46 941.171 7270.19 988.739C7190.93 1036.31 7125.26 1101.99 7073.16 1185.81C7023.35 1267.35 6992.77 1362.49 6981.44 1471.22L6978.05 1274.15C6989.38 1179.01 7012.02 1092.94 7045.99 1015.92C7082.22 938.905 7126.39 873.216 7178.47 818.852C7232.82 762.223 7293.97 719.186 7361.91 689.739C7432.11 660.291 7505.72 645.568 7582.71 645.568Z" fill="black"/>
<path d="M10807.6 2378.41H10535.8V679.546H10807.6V2378.41ZM10552.9 1586.74L10556.2 1681.88C10554 1709.06 10547.2 1750.96 10535.8 1807.59C10526.8 1864.22 10509.8 1927.64 10484.9 1997.86C10462.2 2065.82 10428.3 2131.5 10383 2194.93C10339.9 2258.36 10283.3 2310.46 10213.1 2351.23C10145.2 2392 10060.3 2412.39 9958.36 2412.39C9892.69 2412.39 9824.75 2402.19 9754.54 2381.81C9686.6 2363.69 9623.19 2333.11 9564.31 2290.07C9505.43 2244.77 9457.87 2182.47 9421.64 2103.19C9385.4 2023.92 9367.29 1925.38 9367.29 1807.59V679.546H9639.04V1739.64C9639.04 1841.57 9654.9 1921.99 9686.6 1980.88C9720.57 2037.51 9765.86 2078.28 9822.48 2103.19C9879.1 2128.11 9942.5 2140.57 10012.7 2140.57C10128.2 2140.57 10224.4 2111.12 10301.5 2052.23C10378.5 1993.34 10437.3 1920.85 10478.1 1834.77C10518.9 1748.7 10543.8 1666.02 10552.9 1586.74Z" fill="black"/>
<path d="M11166.7 1831.38H11418.1C11424.9 1928.78 11461.1 2008.06 11526.8 2069.22C11594.7 2130.38 11692 2160.95 11818.9 2160.95C11895.9 2160.95 11956 2150.76 11998.9 2130.38C12044.3 2109.99 12077.1 2082.81 12097.5 2048.83C12117.9 2012.58 12128 1972.95 12128 1929.91C12128 1877.81 12114.4 1837.04 12087.2 1807.59C12062.4 1775.88 12027.2 1749.83 11982 1729.44C11938.9 1709.06 11889.1 1689.8 11832.5 1671.68C11766.8 1646.77 11698.8 1620.72 11628.7 1593.53C11560.8 1564.08 11496.2 1530.11 11435 1491.6C11376.2 1450.83 11328.6 1402.13 11292.4 1345.5C11256.2 1286.61 11238 1216.39 11238 1134.84C11238 1066.89 11251.6 1003.46 11278.8 944.568C11305.9 883.409 11344.5 831.311 11394.3 788.273C11446.4 742.97 11506.4 707.86 11574.4 682.943C11644.5 658.027 11721.5 645.568 11805.3 645.568C11918.5 645.568 12013.7 668.22 12090.7 713.523C12169.9 758.826 12229.9 823.382 12270.7 907.193C12313.7 988.739 12336.4 1083.88 12338.6 1192.6H12104.3C12088.4 1090.67 12055.6 1017.05 12005.7 971.75C11958.2 924.182 11889.1 900.398 11798.6 900.398C11705.6 900.398 11634.3 920.784 11584.5 961.557C11534.7 1002.33 11509.8 1056.69 11509.8 1124.65C11509.8 1174.48 11527.9 1216.39 11564.1 1250.36C11600.4 1282.07 11646.8 1311.52 11703.4 1338.7C11762.3 1363.62 11824.6 1389.67 11890.2 1416.85C11956 1444.03 12019.3 1471.22 12080.4 1498.4C12141.6 1525.58 12195.9 1557.29 12243.5 1593.53C12291.1 1629.78 12328.5 1675.08 12355.7 1729.44C12385 1781.54 12399.8 1847.23 12399.8 1926.51C12399.8 2021.65 12377.2 2106.59 12331.8 2181.34C12288.9 2253.82 12224.3 2310.45 12138.2 2351.23C12054.4 2392 11951.4 2412.39 11829.1 2412.39C11718.2 2412.39 11623.1 2398.8 11543.7 2371.61C11466.8 2342.16 11402.2 2304.79 11350.2 2259.49C11298 2211.92 11257.2 2162.08 11227.9 2109.99C11200.7 2057.89 11182.5 2006.93 11173.5 1957.09C11164.4 1907.25 11162.1 1865.35 11166.7 1831.38Z" fill="black"/>
<path fill-rule="evenodd" clip-rule="evenodd" d="M3305.11 2262.89C3305.11 2204 3337.94 2165.48 3403.62 2147.36C3471.56 2129.25 3566.68 2116.78 3688.97 2109.99L3525.91 2072.61C3495.91 2067.77 3465.27 2065 3434.02 2064.3C3392.16 2063.36 3349.19 2066.13 3305.11 2072.61C3228.11 2083.94 3163.57 2112.26 3111.49 2157.56C3059.39 2200.6 3033.35 2265.15 3033.35 2351.23C3033.35 2396.53 3042.41 2437.3 3060.53 2473.55C3078.64 2509.79 3105.82 2540.37 3142.06 2565.28C3178.28 2590.2 3223.58 2608.33 3277.94 2619.65C3334.55 2633.24 3400.23 2640.03 3474.96 2640.03H3814.66C3939.21 2640.03 4032.06 2667.22 4093.21 2721.58C4156.61 2775.94 4188.32 2863.15 4188.32 2983.2V3057.95H4460.08V2915.25C4460.08 2779.34 4430.64 2671.74 4371.76 2592.47C4312.87 2515.45 4234.74 2459.95 4137.37 2425.98C4039.99 2394.27 3932.41 2378.41 3814.66 2378.41H3461.37C3409.28 2378.41 3369.65 2368.22 3342.48 2347.83C3317.56 2325.17 3305.11 2296.86 3305.11 2262.89Z" fill="black"/>
<path fill-rule="evenodd" clip-rule="evenodd" d="M735.835 679.546H464.078V2378.41H735.835V679.546Z" fill="black"/>
<path fill-rule="evenodd" clip-rule="evenodd" d="M8903.15 679.546H8631.4V2378.41H8903.15V679.546Z" fill="black"/>
<path fill-rule="evenodd" clip-rule="evenodd" d="M3756.3 2108.96C3903.27 2108.96 4039.55 2080.61 4165.14 2023.93C4290.72 1964.97 4390.93 1881.07 4465.75 1772.22C4543.24 1663.38 4581.98 1532.99 4581.98 1381.06C4581.98 1294.89 4565.95 1215.53 4533.88 1142.96C4504.49 1068.13 4451.46 985.712 4406.24 928.149C4381.57 896.752 4356.91 870.587 4313.74 833.957C4267.39 794.622 4215.08 765.928 4184.25 750.229L4085.59 703.133L4004.81 676.968C4013.09 680.329 3999.64 677.156 3978.25 672.113C3950.31 665.519 3908.79 655.729 3884.56 653.159C3844.49 646.356 3801.73 642.954 3756.3 642.954C3609.34 642.954 3473.06 673.567 3347.47 734.792C3221.88 793.75 3120.35 878.786 3042.86 989.898C2965.36 1098.74 2926.62 1229.13 2926.62 1381.06C2926.62 1532.99 2965.36 1663.38 3042.86 1772.22C3123.01 1881.07 3225.89 1964.97 3351.48 2023.93C3385.68 2039.04 3420.34 2052.13 3455.49 2063.23C3552.16 2093.71 3652.44 2108.96 3756.3 2108.96ZM3756.3 1853.85C3844.49 1853.85 3925.98 1835.71 4000.8 1799.44C4078.29 1763.15 4141.09 1709.86 4189.19 1639.57C4237.28 1569.27 4261.33 1483.1 4261.33 1381.06C4261.33 1279.02 4237.28 1192.85 4189.19 1122.56C4143.75 1049.99 4082.31 995.567 4004.81 959.286C3927.32 920.736 3844.49 901.462 3756.3 901.462C3668.13 901.462 3585.29 920.736 3507.8 959.286C3430.31 995.567 3367.51 1048.85 3319.42 1119.15C3271.32 1189.44 3247.27 1276.75 3247.27 1381.06C3247.27 1483.1 3271.32 1569.27 3319.42 1639.57C3367.51 1709.86 3430.31 1763.15 3507.8 1799.44C3585.29 1835.71 3668.13 1853.85 3756.3 1853.85Z" fill="black"/>
<path d="M224.722 642.955C348.833 642.955 449.445 542.32 449.445 418.182C449.445 294.043 348.833 193.409 224.722 193.409C100.612 193.409 0 294.043 0 418.182C0 542.32 100.612 642.955 224.722 642.955Z" fill="black"/>
<path d="M438.992 595.909C412.862 538.409 433.766 486.137 433.766 486.137L297.888 627.273C297.888 627.273 334.47 621 376.279 637.728C418.088 654.455 449.441 690.001 459.894 716.138C470.346 742.274 470.346 888.638 470.346 888.638L679.39 684.774C679.39 684.774 522.607 679.547 501.702 669.092C480.798 658.638 465.123 653.409 438.992 595.909Z" fill="black" stroke="black"/>
</svg>
