<svg width="14" height="14" viewBox="0 0 14 14" fill="none" xmlns="http://www.w3.org/2000/svg">
<g id="edit-01" clip-path="url(#clip0_21_284)">
<path id="Icon" d="M1.67767 10.5674C1.70447 10.3262 1.71787 10.2056 1.75436 10.0929C1.78674 9.99289 1.83248 9.89771 1.89035 9.80996C1.95558 9.71104 2.04138 9.62524 2.21299 9.45363L9.91666 1.74997C10.561 1.10564 11.6057 1.10564 12.25 1.74997C12.8943 2.39431 12.8943 3.43898 12.25 4.08331L4.54632 11.787C4.37471 11.9586 4.28891 12.0444 4.19 12.1096C4.10224 12.1675 4.00707 12.2132 3.90706 12.2456C3.79433 12.2821 3.67373 12.2955 3.43253 12.3223L1.45831 12.5416L1.67767 10.5674Z" stroke="black" stroke-width="1.5" stroke-linecap="round" stroke-linejoin="round"/>
</g>
<defs>
<clipPath id="clip0_21_284">
<rect width="14" height="14" fill="white"/>
</clipPath>
</defs>
</svg>
