<svg width="16" height="16" viewBox="0 0 16 16" fill="none" xmlns="http://www.w3.org/2000/svg">
<g id="home-02">
<path id="Icon" d="M6 14V9.06666C6 8.69329 6 8.5066 6.07266 8.364C6.13658 8.23855 6.23857 8.13657 6.36401 8.07265C6.50661 7.99999 6.6933 7.99999 7.06667 7.99999H8.93333C9.3067 7.99999 9.49339 7.99999 9.63599 8.07265C9.76144 8.13657 9.86342 8.23855 9.92734 8.364C10 8.5066 10 8.69329 10 9.06666V14M7.34513 1.84267L2.82359 5.35942C2.52135 5.5945 2.37022 5.71204 2.26135 5.85924C2.16491 5.98963 2.09307 6.13652 2.04935 6.2927C2 6.46901 2 6.66046 2 7.04337V11.8667C2 12.6134 2 12.9868 2.14532 13.272C2.27316 13.5229 2.47713 13.7268 2.72801 13.8547C3.01323 14 3.3866 14 4.13333 14H11.8667C12.6134 14 12.9868 14 13.272 13.8547C13.5229 13.7268 13.7268 13.5229 13.8547 13.272C14 12.9868 14 12.6134 14 11.8667V7.04337C14 6.66046 14 6.46901 13.9506 6.2927C13.9069 6.13652 13.8351 5.98963 13.7386 5.85924C13.6298 5.71204 13.4787 5.5945 13.1764 5.35942L8.65487 1.84267C8.42065 1.6605 8.30354 1.56941 8.17423 1.5344C8.06013 1.50351 7.93987 1.50351 7.82577 1.5344C7.69646 1.56941 7.57935 1.6605 7.34513 1.84267Z" stroke="black" stroke-opacity="1" stroke-width="1.5" stroke-linecap="round" stroke-linejoin="round"/>
</g>
</svg>
