<svg width="16" height="16" viewBox="0 0 16 16" fill="none" xmlns="http://www.w3.org/2000/svg">
<g clip-path="url(#clip0_22_128)">
<path d="M7.66665 3.33337H7.95624C9.98774 3.33337 11.0035 3.33337 11.3891 3.69823C11.7224 4.01362 11.8701 4.47823 11.7801 4.92818C11.676 5.44872 10.8467 6.03528 9.18817 7.20839L6.47846 9.12502C4.81992 10.2981 3.99064 10.8847 3.88654 11.4052C3.79655 11.8552 3.94426 12.3198 4.27755 12.6352C4.66314 13 5.67888 13 7.71038 13H8.33331M5.33331 3.33337C5.33331 4.43794 4.43788 5.33337 3.33331 5.33337C2.22874 5.33337 1.33331 4.43794 1.33331 3.33337C1.33331 2.2288 2.22874 1.33337 3.33331 1.33337C4.43788 1.33337 5.33331 2.2288 5.33331 3.33337ZM14.6666 12.6667C14.6666 13.7713 13.7712 14.6667 12.6666 14.6667C11.5621 14.6667 10.6666 13.7713 10.6666 12.6667C10.6666 11.5621 11.5621 10.6667 12.6666 10.6667C13.7712 10.6667 14.6666 11.5621 14.6666 12.6667Z" stroke="black" stroke-opacity="1" stroke-width="1.5" stroke-linecap="round" stroke-linejoin="round"/>
</g>
<defs>
<clipPath id="clip0_22_128">
<rect width="16" height="16" fill="white"/>
</clipPath>
</defs>
</svg>
