<svg width="20" height="20" viewBox="0 0 20 20" fill="none" xmlns="http://www.w3.org/2000/svg">
<g id="send-01">
<path id="Icon" d="M8.74961 11.25L17.4996 2.50002M8.85593 11.5234L11.046 17.1551C11.239 17.6512 11.3354 17.8993 11.4744 17.9717C11.5949 18.0345 11.7385 18.0345 11.859 17.9719C11.9981 17.8997 12.0949 17.6517 12.2884 17.1558L17.7804 3.08269C17.9551 2.63504 18.0424 2.41121 17.9946 2.26819C17.9531 2.14398 17.8557 2.04651 17.7314 2.00501C17.5884 1.95723 17.3646 2.04458 16.9169 2.21927L2.84383 7.71122C2.34793 7.90474 2.09998 8.0015 2.02772 8.14059C1.96508 8.26116 1.96517 8.4047 2.02795 8.5252C2.10037 8.66421 2.34843 8.76067 2.84455 8.95361L8.47622 11.1437C8.57693 11.1829 8.62728 11.2024 8.66969 11.2327C8.70727 11.2595 8.74013 11.2924 8.76694 11.3299C8.79718 11.3723 8.81677 11.4227 8.85593 11.5234Z" stroke="black" stroke-opacity="1" stroke-width="1.5" stroke-linecap="round" stroke-linejoin="round"/>
</g>
</svg>
