<svg width="16" height="16" viewBox="0 0 16 16" fill="none" xmlns="http://www.w3.org/2000/svg">
<path d="M10.6666 2.31184C11.6545 2.80274 12.3333 3.82209 12.3333 5C12.3333 6.17791 11.6545 7.19726 10.6666 7.68816M12 11.1776C13.0076 11.6336 13.915 12.3767 14.6666 13.3333M1.33331 13.3333C2.63097 11.6817 4.39277 10.6667 6.33331 10.6667C8.27386 10.6667 10.0357 11.6817 11.3333 13.3333M9.33331 5C9.33331 6.65685 7.99017 8 6.33331 8C4.67646 8 3.33331 6.65685 3.33331 5C3.33331 3.34315 4.67646 2 6.33331 2C7.99017 2 9.33331 3.34315 9.33331 5Z" stroke="black" stroke-opacity="1" stroke-width="1.5" stroke-linecap="round" stroke-linejoin="round"/>
</svg>
